<svg version="1.1" id="Layer_1" xmlns="http://www.w3.org/2000/svg" xmlns:xlink="http://www.w3.org/1999/xlink" x="0px" y="0px"
	 width="100%" viewBox="0 0 1024 1024" enable-background="new 0 0 1024 1024" xml:space="preserve">
<path fill="#FFFFFF" opacity="1.000000" stroke="none" 
	d="
M1025.000000,391.000000 
	C1025.000000,602.666687 1025.000000,813.833313 1025.000000,1025.000000 
	C683.666687,1025.000000 342.333344,1025.000000 1.000000,1025.000000 
	C1.000000,683.666687 1.000000,342.333344 1.000000,1.000000 
	C342.333344,1.000000 683.666687,1.000000 1025.000000,1.000000 
	C1025.000000,130.833328 1025.000000,260.666656 1025.000000,391.000000 
M988.803894,383.984741 
	C989.385254,384.521759 989.966614,385.058807 990.547974,385.595856 
	C991.138977,384.978546 991.729980,384.361237 992.320984,383.743927 
	C991.270386,383.439087 990.219849,383.134216 988.831665,382.249176 
	C964.867310,362.071930 937.370117,347.891357 908.731079,335.892120 
	C845.280457,309.307404 778.598633,295.563354 710.554382,288.271149 
	C677.658508,284.745758 644.543030,282.369080 611.476135,281.565857 
	C569.187622,280.538635 526.843262,281.296692 484.531372,281.889435 
	C440.066711,282.512299 395.615021,284.440247 351.151947,284.663605 
	C321.881744,284.810669 292.551971,283.668640 263.348511,281.657043 
	C250.608215,280.779480 237.783951,277.272430 225.593689,273.183197 
	C208.420364,267.422394 203.905212,254.763458 211.332504,238.252975 
	C215.945572,227.998352 222.851761,219.639664 231.474228,212.557053 
	C249.093399,198.084427 269.766998,189.980698 291.375122,183.901962 
	C329.361328,173.215820 368.331055,168.537445 407.550598,166.254181 
	C443.111450,164.183929 478.735596,162.836365 514.350647,162.162155 
	C550.441833,161.478943 586.556030,162.011398 622.660217,162.011398 
	C620.681091,160.892960 618.642944,160.194244 616.562988,160.032578 
	C590.860107,158.034744 565.180481,155.204514 539.437317,154.372589 
	C491.647186,152.828201 443.848419,153.714401 396.174316,157.950806 
	C373.974945,159.923462 351.724548,161.576050 329.629547,164.406265 
	C300.783173,168.101257 272.074005,172.861755 243.291290,177.064346 
	C237.411163,177.922928 232.467926,179.636353 228.071762,184.300049 
	C200.439713,213.613617 180.843750,247.708588 166.874557,285.248627 
	C165.007095,290.267120 163.439865,295.397278 161.403885,301.457062 
	C166.944000,300.918427 171.203018,300.389954 175.478287,300.107452 
	C201.052216,298.417572 226.614304,296.467377 252.210144,295.210907 
	C285.634399,293.570190 319.078583,292.226135 352.528748,291.259277 
	C379.169495,290.489258 405.831360,290.303314 432.485291,290.186432 
	C450.805725,290.106110 469.131531,290.454010 487.449707,290.852020 
	C510.758148,291.358459 534.076599,291.773682 557.362854,292.838898 
	C586.619202,294.177124 615.888916,295.615692 645.076050,297.966095 
	C675.571411,300.421844 706.058594,303.365204 736.399048,307.264648 
	C777.133972,312.500031 817.577271,319.635834 857.379761,330.003143 
	C898.400574,340.687836 938.478271,353.813782 975.227539,375.548737 
	C979.657654,378.168915 984.062256,380.832397 988.803894,383.984741 
M174.440018,564.843994 
	C177.393707,564.843994 180.347382,564.843994 183.506378,564.843994 
	C183.506378,554.078552 183.506378,543.849976 183.506378,533.109497 
	C143.320251,533.109497 103.420807,533.109497 63.346092,533.109497 
	C63.346092,502.846161 63.346092,473.096191 63.346092,442.903564 
	C104.652924,442.903564 145.736618,442.903564 186.895752,442.903564 
	C186.895752,432.087280 186.895752,421.718323 186.895752,411.406738 
	C134.220993,411.406738 81.944016,411.406738 29.475830,411.406738 
	C29.475830,513.029785 29.475830,614.401733 29.475830,715.699707 
	C82.215248,715.699707 134.617752,715.699707 186.920410,715.699707 
	C186.920410,705.151611 186.920410,694.912903 186.920410,684.359985 
	C145.585556,684.359985 104.622322,684.359985 63.390362,684.359985 
	C63.390362,644.461731 63.390362,604.888550 63.390362,564.843994 
	C100.216881,564.843994 136.837479,564.843994 174.440018,564.843994 
M266.500000,716.004761 
	C323.634399,716.004761 380.768768,716.004761 438.066467,716.004761 
	C438.066467,705.441956 438.066467,695.185730 438.066467,684.363464 
	C384.298828,684.363464 330.789551,684.363464 276.415436,684.363464 
	C332.090668,592.984192 387.279205,502.403717 442.696381,411.447998 
	C374.897888,411.447998 308.149780,411.447998 241.319016,411.447998 
	C241.319016,421.978027 241.319016,432.214417 241.319016,443.038574 
	C289.574493,443.038574 337.544586,443.038574 386.069885,443.038574 
	C330.591431,534.252258 275.527039,624.785156 220.044983,716.004761 
	C235.907593,716.004761 250.703796,716.004761 266.500000,716.004761 
M714.195435,324.287415 
	C690.517578,320.793488 666.864380,317.120514 643.156433,313.844574 
	C599.918030,307.870026 556.401550,305.302887 512.805359,304.290527 
	C458.992523,303.041016 405.232697,304.918182 351.520081,308.194672 
	C336.906616,309.086090 322.302643,310.162628 307.707733,311.322632 
	C280.348175,313.497101 252.999542,315.808716 225.644043,318.034882 
	C211.852478,319.157257 198.055847,320.217316 184.261520,321.305542 
	C197.820953,323.080933 211.388611,324.324341 224.925598,325.841431 
	C257.463623,329.488037 290.043732,332.842316 322.488007,337.199738 
	C334.908569,338.867889 347.084930,342.668762 359.192078,346.129181 
	C362.118164,346.965485 364.327911,350.308167 366.867035,352.498291 
	C364.184937,354.990936 361.914246,358.560852 358.742737,359.772125 
	C349.608856,363.260437 340.177979,366.036469 330.742584,368.655884 
	C312.025085,373.852173 292.966644,376.482971 273.497192,374.986267 
	C252.938141,373.405823 232.346222,372.109161 211.844421,369.964294 
	C187.085983,367.374084 163.067459,361.417786 140.074402,351.700867 
	C124.530685,345.132050 109.945480,336.869385 96.133011,327.140930 
	C86.704620,320.500397 77.748672,321.457855 71.596786,328.930450 
	C64.727287,337.274750 57.700161,345.489471 50.844833,353.845276 
	C41.902817,364.744507 34.934166,376.725830 30.951244,390.527100 
	C34.780697,391.779144 37.003277,391.111755 38.381466,387.149109 
	C39.902512,382.775757 42.004089,378.557404 44.251320,374.491791 
	C53.196880,358.307892 66.807716,350.299988 85.511139,350.702972 
	C98.864319,350.990692 111.527733,354.328461 123.969070,358.554138 
	C150.896149,367.699982 177.640976,377.384094 204.593231,386.453125 
	C211.447586,388.759552 218.788361,390.825470 225.925018,390.890961 
	C269.912506,391.294739 313.905518,391.103485 357.896667,391.065796 
	C360.035309,391.063965 362.268188,390.968323 364.297546,390.372528 
	C386.963409,383.718018 408.026764,373.477295 428.207458,361.354736 
	C432.974915,358.490967 433.374329,354.573700 428.883606,351.433807 
	C425.006042,348.722656 420.483978,346.640869 415.954102,345.203278 
	C389.954803,336.952057 362.858276,334.645447 336.007874,331.263458 
	C309.786224,327.960754 283.444183,325.616150 257.159607,322.807770 
	C253.677353,322.435730 250.222290,321.809326 246.754639,321.300690 
	C440.684662,308.449097 633.696106,311.178986 824.849976,350.828217 
	C788.874329,339.457245 752.066345,331.511169 714.195435,324.287415 
M479.502747,138.005600 
	C522.468262,137.511597 565.364746,138.244720 608.170166,142.769058 
	C638.811096,146.007690 669.179138,150.524048 698.968262,158.432556 
	C731.464111,167.059616 762.784607,178.494415 790.280457,198.537231 
	C815.067627,216.605530 832.809875,239.634689 839.525085,270.077209 
	C841.372559,278.452637 842.100403,287.074982 843.386597,295.889618 
	C855.627319,297.301941 867.679565,298.692505 880.460632,300.167175 
	C879.688782,298.087769 879.359253,296.994904 878.890076,295.965698 
	C861.634338,258.115326 844.247131,220.324265 827.156311,182.399582 
	C820.182983,166.925644 807.989990,158.436600 791.999146,155.024124 
	C781.940369,152.877518 771.710144,151.414246 761.494751,150.143005 
	C720.591492,145.052826 679.751343,139.192780 638.719482,135.476624 
	C601.791321,132.132156 564.659790,130.758820 527.585388,129.409973 
	C506.471924,128.641815 485.282104,129.310837 464.147217,129.980606 
	C443.195770,130.644577 422.227112,131.608170 401.342499,133.355026 
	C363.874908,136.488907 326.721436,142.017975 289.987823,150.145630 
	C281.573029,152.007477 273.230133,154.194183 264.854126,156.231400 
	C266.830139,156.859283 268.677277,157.051453 270.473755,156.830872 
	C305.605591,152.517029 340.650513,147.265244 375.881866,144.057526 
	C409.990326,140.952042 444.289276,139.939407 479.502747,138.005600 
M625.295227,467.721283 
	C619.028809,484.312592 612.762390,500.903931 606.368286,517.833252 
	C613.906372,517.833252 620.834229,517.833252 627.898438,517.833252 
	C630.343994,511.537720 632.663452,505.308990 635.225159,499.181549 
	C635.761719,497.898041 637.173035,496.066589 638.211365,496.046539 
	C649.808350,495.822937 661.411316,495.905396 672.970703,495.905396 
	C675.799011,503.581146 678.437744,510.742401 681.008423,517.718994 
	C688.353821,517.718994 695.403137,517.718994 702.748047,517.718994 
	C702.241699,516.295959 701.865601,515.204041 701.465820,514.120911 
	C690.303955,483.881531 679.140198,453.642914 667.975708,423.404541 
	C662.802551,409.393280 662.801514,409.393677 647.137573,410.321594 
	C640.009216,429.143219 632.833801,448.089203 625.295227,467.721283 
M812.523987,471.823792 
	C820.113159,471.823792 827.702393,471.823792 835.410645,471.823792 
	C835.410645,465.563141 835.410645,459.970032 835.410645,453.797791 
	C824.483337,453.797791 813.777405,453.797791 803.336426,453.797791 
	C803.336426,445.789856 803.336426,438.364929 803.336426,430.654297 
	C814.609253,430.654297 825.551025,430.654297 836.602173,430.654297 
	C836.602173,424.631592 836.602173,418.915375 836.602173,413.156921 
	C818.520813,413.156921 800.747070,413.156921 782.756104,413.156921 
	C782.756104,448.094971 782.756104,482.847321 782.756104,517.724731 
	C800.836182,517.724731 818.721313,517.724731 836.542419,517.724731 
	C836.542419,511.722534 836.542419,506.007294 836.542419,499.997925 
	C825.245911,499.997925 814.313293,499.997925 803.293945,499.997925 
	C803.293945,490.458923 803.293945,481.233063 803.293945,471.823792 
	C806.232056,471.823792 808.881409,471.823792 812.523987,471.823792 
M559.511108,518.002625 
	C573.406616,518.002625 587.302124,518.002625 600.979980,518.002625 
	C600.979980,511.647278 600.979980,506.050537 600.979980,500.074341 
	C589.753784,500.074341 578.820923,500.074341 567.825989,500.074341 
	C567.825989,490.485596 567.825989,481.294403 567.825989,471.631958 
	C578.729797,471.631958 589.304321,471.631958 599.839233,471.631958 
	C599.839233,465.543427 599.839233,459.935059 599.839233,453.922852 
	C589.041748,453.922852 578.450439,453.922852 567.710327,453.922852 
	C567.710327,446.103302 567.710327,438.694611 567.710327,430.714661 
	C578.969116,430.714661 590.020569,430.714661 601.056885,430.714661 
	C601.056885,424.541412 601.056885,418.943085 601.056885,413.283112 
	C582.951111,413.283112 565.071533,413.283112 547.295288,413.283112 
	C547.295288,448.325043 547.295288,483.055664 547.295288,518.002625 
	C551.228577,518.002625 554.872986,518.002625 559.511108,518.002625 
M739.169800,473.102356 
	C740.057373,473.557281 740.950623,474.001526 741.831604,474.468811 
	C747.388733,477.416443 751.033569,481.639587 750.612732,488.316071 
	C750.231689,494.362762 747.914978,499.493011 741.938721,501.748260 
	C735.504700,504.176300 729.706238,502.084442 725.025269,497.466675 
	C722.265198,494.743896 720.186218,491.330688 717.670959,488.058929 
	C713.676025,492.267334 709.594055,496.567535 704.962463,501.446625 
	C708.520081,505.231964 711.990540,509.789703 716.294617,513.335693 
	C727.470093,522.543030 740.215759,523.125793 752.902893,517.430786 
	C766.173035,511.474091 771.351379,499.841553 771.831238,485.873627 
	C772.300903,472.202759 765.817322,462.743500 753.683533,456.921295 
	C748.296753,454.336548 742.736084,452.084076 737.487122,449.249695 
	C730.960205,445.725128 728.996094,441.383148 730.786133,435.932129 
	C732.614807,430.363220 738.229797,426.372528 744.528320,427.804810 
	C749.680786,428.976501 754.401367,432.047546 759.786560,434.491302 
	C762.150085,430.997650 765.197632,426.492920 768.481567,421.638733 
	C757.472351,412.695343 745.599243,408.083282 731.724548,411.205017 
	C719.852661,413.876099 710.862854,424.815979 709.191772,437.703003 
	C707.545532,450.398804 712.249573,459.691376 724.008728,466.153595 
	C728.651367,468.704926 733.627686,470.649170 739.169800,473.102356 
M878.890564,619.282715 
	C865.179932,650.379578 851.469299,681.476440 837.565979,713.010315 
	C840.622131,713.010315 842.987305,712.739807 845.265198,713.070374 
	C849.222290,713.644531 851.066467,712.089966 852.487854,708.354492 
	C855.727295,699.840515 859.552368,691.549438 863.156189,683.128723 
	C876.760620,683.128723 890.091064,683.295837 903.412354,683.020325 
	C907.103577,682.943970 908.603577,684.300964 909.843872,687.496094 
	C913.184570,696.102356 916.864136,704.577026 920.289673,712.816528 
	C924.843018,712.816528 928.783142,712.816528 933.219299,712.816528 
	C917.546753,676.306091 902.023071,640.142212 886.092102,603.029846 
	C883.447510,608.929443 881.288818,613.744934 878.890564,619.282715 
M666.653442,685.769653 
	C654.939087,658.527710 643.224731,631.285767 631.047913,602.968323 
	C614.660034,640.173157 598.713806,676.375244 582.576904,713.010315 
	C585.603760,713.010315 587.967285,712.747253 590.248352,713.068848 
	C594.180176,713.623169 596.058167,712.134399 597.483948,708.371460 
	C600.712158,699.851196 604.546448,691.560608 608.154785,683.128723 
	C621.743103,683.128723 635.073303,683.291626 648.394714,683.022766 
	C652.065247,682.948669 653.594482,684.263611 654.838989,687.479126 
	C658.171875,696.090454 661.857239,704.565369 665.290649,712.825317 
	C669.829895,712.825317 673.774292,712.825317 678.187439,712.825317 
	C674.344238,703.827515 670.639221,695.153137 666.653442,685.769653 
M540.456055,513.256409 
	C540.456055,508.968781 540.456055,504.681152 540.456055,499.964539 
	C530.479980,499.964539 521.059326,499.964539 511.485382,499.964539 
	C511.485382,485.220306 511.485382,470.913269 511.485382,456.606201 
	C511.485382,442.164429 511.485382,427.722656 511.485382,413.234100 
	C504.431854,413.234100 497.861389,413.234100 491.203369,413.234100 
	C491.203369,448.194244 491.203369,482.894714 491.203369,517.796143 
	C507.617432,517.796143 523.834412,517.796143 540.255554,517.796143 
	C540.329468,516.464539 540.392700,515.325073 540.456055,513.256409 
M509.203583,703.292419 
	C528.727600,717.303833 551.351318,718.673401 570.492981,706.894897 
	C571.913208,706.020996 573.785339,704.564087 573.942932,703.203796 
	C574.405151,699.215027 574.107544,695.138184 574.107544,690.619202 
	C550.606323,708.171997 529.241882,708.134033 512.513184,691.024658 
	C497.022888,675.181885 495.539703,650.995361 509.140228,633.663574 
	C515.619934,625.406189 523.980957,619.930420 534.381653,617.866577 
	C549.598145,614.846985 562.276917,620.383179 574.128967,630.553772 
	C574.128967,626.908630 573.799438,624.070923 574.205505,621.342834 
	C574.829651,617.149170 572.800720,614.960693 569.440796,613.150330 
	C561.543701,608.895447 553.168884,606.406860 544.209839,606.147034 
	C521.209229,605.479919 499.799133,620.029663 491.514618,641.841309 
	C483.206787,663.714294 489.688568,686.842163 509.203583,703.292419 
M105.596977,288.493469 
	C99.788940,288.368927 93.977592,288.326813 88.173958,288.093018 
	C83.770813,287.915680 80.439148,285.744049 79.093781,281.527588 
	C77.682053,277.103180 80.465515,274.289703 83.806046,272.032684 
	C85.172523,271.109436 86.635750,270.167633 88.194473,269.719147 
	C94.396797,267.934601 100.581055,265.949371 106.908287,264.769226 
	C116.311836,263.015320 124.650803,267.218719 128.832611,275.754791 
	C130.781616,279.733154 131.796799,284.182251 133.099579,288.459320 
	C133.980591,291.351746 134.624969,294.316254 135.375198,297.248505 
	C135.854416,297.276886 136.333649,297.305267 136.812881,297.333649 
	C137.460663,295.945435 138.487595,294.611450 138.695068,293.160339 
	C140.105530,283.294800 141.600937,273.425873 142.419495,263.504425 
	C142.583237,261.519623 140.408646,258.218018 138.516006,257.425873 
	C134.796860,255.869186 130.521194,255.017166 126.470901,254.999619 
	C116.328957,254.955704 106.138458,256.306793 96.050827,255.703674 
	C78.367462,254.646423 64.476242,270.937286 61.905689,283.263123 
	C59.836174,293.186523 63.836437,300.566345 73.774597,302.864716 
	C79.193230,304.117889 84.981712,303.808197 90.607994,304.120422 
	C109.426956,305.164886 128.337097,305.847595 144.029266,319.208008 
	C148.523743,315.008575 152.865692,310.951660 157.957382,306.194214 
	C140.600708,308.438782 126.307739,305.188477 114.406281,293.531128 
	C112.247856,291.416962 109.085648,290.327637 105.596977,288.493469 
M900.781494,283.736450 
	C901.628601,287.626617 902.475708,291.516815 903.322754,295.406982 
	C903.944092,295.377197 904.565369,295.347412 905.186646,295.317627 
	C905.781067,293.357361 906.353760,291.390228 906.973999,289.438171 
	C908.678528,284.073517 909.944580,278.508423 912.245300,273.411316 
	C914.654114,268.074951 919.025391,264.191376 925.022522,263.172882 
	C936.897034,261.156250 947.720947,264.561249 957.785095,270.591614 
	C960.899719,272.457886 963.077942,275.510986 961.727783,279.470337 
	C960.384521,283.409332 957.416199,285.808594 953.164734,286.045532 
	C949.848328,286.230286 946.497131,286.217590 943.185303,285.971130 
	C935.716187,285.415283 929.736511,287.900024 924.329163,293.201904 
	C920.983398,296.482391 916.635559,299.036926 912.312317,300.962708 
	C903.421875,304.922974 893.999634,306.229797 883.847351,304.975586 
	C888.130371,308.973969 892.413391,312.972321 896.818176,317.084320 
	C905.081482,310.234039 914.271118,305.974030 924.547607,304.842316 
	C936.591431,303.515961 948.707397,302.795288 960.806030,302.032135 
	C971.238586,301.374023 978.411316,295.920288 979.057739,287.752350 
	C980.245972,272.737793 965.197998,254.897522 950.212769,254.039200 
	C938.253540,253.354202 926.262878,253.072876 914.283264,252.976822 
	C910.534668,252.946777 906.693054,253.799149 903.047180,254.803345 
	C899.647095,255.739822 897.883667,258.428528 898.254761,262.064484 
	C898.963257,269.007996 899.805603,275.937805 900.781494,283.736450 
M689.892334,637.500000 
	C689.892334,662.566589 689.892334,687.633240 689.892334,712.803955 
	C693.975159,712.803955 697.560425,712.803955 701.571045,712.803955 
	C701.571045,697.543091 701.571045,682.483032 701.571045,667.529907 
	C708.600769,667.003723 715.282349,667.013611 721.775452,665.912231 
	C735.646606,663.559509 744.668762,652.450012 744.982178,638.191467 
	C745.294006,624.006287 737.051575,611.931946 723.633606,609.658508 
	C712.646423,607.796936 701.300598,608.052307 689.892334,607.355713 
	C689.892334,617.891113 689.892334,627.195557 689.892334,637.500000 
M785.685608,607.967041 
	C784.869507,611.411926 784.053406,614.856812 783.052612,619.081238 
	C792.664856,619.081238 800.885864,619.081238 809.468689,619.081238 
	C809.468689,650.698792 809.468689,681.772644 809.468689,712.761658 
	C813.466125,712.761658 817.070251,712.761658 821.030029,712.761658 
	C821.030029,681.439270 821.030029,650.364380 821.030029,618.872864 
	C829.631897,618.872864 837.876160,618.872864 846.352295,618.872864 
	C846.352295,615.054810 846.352295,611.658447 846.352295,607.963318 
	C826.264954,607.963318 806.460449,607.963318 785.685608,607.967041 
M944.887695,672.500000 
	C944.887695,685.921936 944.887695,699.343811 944.887695,712.751831 
	C958.697876,712.751831 971.936707,712.751831 985.200439,712.751831 
	C985.200439,709.077148 985.200439,705.677917 985.200439,701.965271 
	C975.570862,701.965271 966.284912,701.965271 956.594604,701.965271 
	C956.594604,670.579163 956.594604,639.509033 956.594604,608.268677 
	C952.476196,608.268677 948.771912,608.268677 944.887695,608.268677 
	C944.887695,629.552429 944.887695,650.526184 944.887695,672.500000 
M760.058594,676.500000 
	C760.058594,688.596741 760.058594,700.693542 760.058594,712.792725 
	C764.260254,712.792725 767.861633,712.792725 771.661072,712.792725 
	C771.661072,677.842896 771.661072,643.113953 771.661072,608.274170 
	C767.716492,608.274170 764.003418,608.274170 760.058594,608.274170 
	C760.058594,630.890869 760.058594,653.195435 760.058594,676.500000 
M882.582825,303.651733 
	C882.582825,303.651733 882.731812,303.445892 882.731812,303.445892 
	C882.731812,303.445892 882.419312,303.456635 882.582825,303.651733 
M158.611450,305.535034 
	C158.611450,305.535034 158.352966,305.409393 158.352966,305.409393 
	C158.352966,305.409393 158.402267,305.650818 158.611450,305.535034 
z"/>
<path fill="#FF0303" opacity="1.000000" stroke="none" 
	d="
M173.949051,564.843994 
	C136.837479,564.843994 100.216881,564.843994 63.390362,564.843994 
	C63.390362,604.888550 63.390362,644.461731 63.390362,684.359985 
	C104.622322,684.359985 145.585556,684.359985 186.920410,684.359985 
	C186.920410,694.912903 186.920410,705.151611 186.920410,715.699707 
	C134.617752,715.699707 82.215248,715.699707 29.475830,715.699707 
	C29.475830,614.401733 29.475830,513.029785 29.475830,411.406738 
	C81.944016,411.406738 134.220993,411.406738 186.895752,411.406738 
	C186.895752,421.718323 186.895752,432.087280 186.895752,442.903564 
	C145.736618,442.903564 104.652924,442.903564 63.346092,442.903564 
	C63.346092,473.096191 63.346092,502.846161 63.346092,533.109497 
	C103.420807,533.109497 143.320251,533.109497 183.506378,533.109497 
	C183.506378,543.849976 183.506378,554.078552 183.506378,564.843994 
	C180.347382,564.843994 177.393707,564.843994 173.949051,564.843994 
z"/>
<path fill="#FF0303" opacity="1.000000" stroke="none" 
	d="
M266.000000,716.004761 
	C250.703796,716.004761 235.907593,716.004761 220.044983,716.004761 
	C275.527039,624.785156 330.591431,534.252258 386.069885,443.038574 
	C337.544586,443.038574 289.574493,443.038574 241.319016,443.038574 
	C241.319016,432.214417 241.319016,421.978027 241.319016,411.447998 
	C308.149780,411.447998 374.897888,411.447998 442.696381,411.447998 
	C387.279205,502.403717 332.090668,592.984192 276.415436,684.363464 
	C330.789551,684.363464 384.298828,684.363464 438.066467,684.363464 
	C438.066467,695.185730 438.066467,705.441956 438.066467,716.004761 
	C380.768768,716.004761 323.634399,716.004761 266.000000,716.004761 
z"/>
<path fill="#FF8181" opacity="1.000000" stroke="none" 
	d="
M988.478638,383.475800 
	C984.062256,380.832397 979.657654,378.168915 975.227539,375.548737 
	C938.478271,353.813782 898.400574,340.687836 857.379761,330.003143 
	C817.577271,319.635834 777.133972,312.500031 736.399048,307.264648 
	C706.058594,303.365204 675.571411,300.421844 645.076050,297.966095 
	C615.888916,295.615692 586.619202,294.177124 557.362854,292.838898 
	C534.076599,291.773682 510.758148,291.358459 487.449707,290.852020 
	C469.131531,290.454010 450.805725,290.106110 432.485291,290.186432 
	C405.831360,290.303314 379.169495,290.489258 352.528748,291.259277 
	C319.078583,292.226135 285.634399,293.570190 252.210144,295.210907 
	C226.614304,296.467377 201.052216,298.417572 175.478287,300.107452 
	C171.203018,300.389954 166.944000,300.918427 161.403885,301.457062 
	C163.439865,295.397278 165.007095,290.267120 166.874557,285.248627 
	C180.843750,247.708588 200.439713,213.613617 228.071762,184.300049 
	C232.467926,179.636353 237.411163,177.922928 243.291290,177.064346 
	C272.074005,172.861755 300.783173,168.101257 329.629547,164.406265 
	C351.724548,161.576050 373.974945,159.923462 396.174316,157.950806 
	C443.848419,153.714401 491.647186,152.828201 539.437317,154.372589 
	C565.180481,155.204514 590.860107,158.034744 616.562988,160.032578 
	C618.642944,160.194244 620.681091,160.892960 622.660217,162.011398 
	C586.556030,162.011398 550.441833,161.478943 514.350647,162.162155 
	C478.735596,162.836365 443.111450,164.183929 407.550598,166.254181 
	C368.331055,168.537445 329.361328,173.215820 291.375122,183.901962 
	C269.766998,189.980698 249.093399,198.084427 231.474228,212.557053 
	C222.851761,219.639664 215.945572,227.998352 211.332504,238.252975 
	C203.905212,254.763458 208.420364,267.422394 225.593689,273.183197 
	C237.783951,277.272430 250.608215,280.779480 263.348511,281.657043 
	C292.551971,283.668640 321.881744,284.810669 351.151947,284.663605 
	C395.615021,284.440247 440.066711,282.512299 484.531372,281.889435 
	C526.843262,281.296692 569.187622,280.538635 611.476135,281.565857 
	C644.543030,282.369080 677.658508,284.745758 710.554382,288.271149 
	C778.598633,295.563354 845.280457,309.307404 908.731079,335.892120 
	C937.370117,347.891357 964.867310,362.071930 988.825439,382.698364 
	C988.819275,383.147552 988.478638,383.475800 988.478638,383.475800 
z"/>
<path fill="#FF8181" opacity="1.000000" stroke="none" 
	d="
M714.608582,324.410278 
	C752.066345,331.511169 788.874329,339.457245 824.849976,350.828217 
	C633.696106,311.178986 440.684662,308.449097 246.754639,321.300690 
	C250.222290,321.809326 253.677353,322.435730 257.159607,322.807770 
	C283.444183,325.616150 309.786224,327.960754 336.007874,331.263458 
	C362.858276,334.645447 389.954803,336.952057 415.954102,345.203278 
	C420.483978,346.640869 425.006042,348.722656 428.883606,351.433807 
	C433.374329,354.573700 432.974915,358.490967 428.207458,361.354736 
	C408.026764,373.477295 386.963409,383.718018 364.297546,390.372528 
	C362.268188,390.968323 360.035309,391.063965 357.896667,391.065796 
	C313.905518,391.103485 269.912506,391.294739 225.925018,390.890961 
	C218.788361,390.825470 211.447586,388.759552 204.593231,386.453125 
	C177.640976,377.384094 150.896149,367.699982 123.969070,358.554138 
	C111.527733,354.328461 98.864319,350.990692 85.511139,350.702972 
	C66.807716,350.299988 53.196880,358.307892 44.251320,374.491791 
	C42.004089,378.557404 39.902512,382.775757 38.381466,387.149109 
	C37.003277,391.111755 34.780697,391.779144 30.951244,390.527100 
	C34.934166,376.725830 41.902817,364.744507 50.844833,353.845276 
	C57.700161,345.489471 64.727287,337.274750 71.596786,328.930450 
	C77.748672,321.457855 86.704620,320.500397 96.133011,327.140930 
	C109.945480,336.869385 124.530685,345.132050 140.074402,351.700867 
	C163.067459,361.417786 187.085983,367.374084 211.844421,369.964294 
	C232.346222,372.109161 252.938141,373.405823 273.497192,374.986267 
	C292.966644,376.482971 312.025085,373.852173 330.742584,368.655884 
	C340.177979,366.036469 349.608856,363.260437 358.742737,359.772125 
	C361.914246,358.560852 364.184937,354.990936 366.867035,352.498291 
	C364.327911,350.308167 362.118164,346.965485 359.192078,346.129181 
	C347.084930,342.668762 334.908569,338.867889 322.488007,337.199738 
	C290.043732,332.842316 257.463623,329.488037 224.925598,325.841431 
	C211.388611,324.324341 197.820953,323.080933 184.261520,321.305542 
	C198.055847,320.217316 211.852478,319.157257 225.644043,318.034882 
	C252.999542,315.808716 280.348175,313.497101 307.707733,311.322632 
	C322.302643,310.162628 336.906616,309.086090 351.520081,308.194672 
	C405.232697,304.918182 458.992523,303.041016 512.805359,304.290527 
	C556.401550,305.302887 599.918030,307.870026 643.156433,313.844574 
	C666.864380,317.120514 690.517578,320.793488 714.608582,324.410278 
z"/>
<path fill="#FF8181" opacity="1.000000" stroke="none" 
	d="
M479.003662,138.006577 
	C444.289276,139.939407 409.990326,140.952042 375.881866,144.057526 
	C340.650513,147.265244 305.605591,152.517029 270.473755,156.830872 
	C268.677277,157.051453 266.830139,156.859283 264.854126,156.231400 
	C273.230133,154.194183 281.573029,152.007477 289.987823,150.145630 
	C326.721436,142.017975 363.874908,136.488907 401.342499,133.355026 
	C422.227112,131.608170 443.195770,130.644577 464.147217,129.980606 
	C485.282104,129.310837 506.471924,128.641815 527.585388,129.409973 
	C564.659790,130.758820 601.791321,132.132156 638.719482,135.476624 
	C679.751343,139.192780 720.591492,145.052826 761.494751,150.143005 
	C771.710144,151.414246 781.940369,152.877518 791.999146,155.024124 
	C807.989990,158.436600 820.182983,166.925644 827.156311,182.399582 
	C844.247131,220.324265 861.634338,258.115326 878.890076,295.965698 
	C879.359253,296.994904 879.688782,298.087769 880.460632,300.167175 
	C867.679565,298.692505 855.627319,297.301941 843.386597,295.889618 
	C842.100403,287.074982 841.372559,278.452637 839.525085,270.077209 
	C832.809875,239.634689 815.067627,216.605530 790.280457,198.537231 
	C762.784607,178.494415 731.464111,167.059616 698.968262,158.432556 
	C669.179138,150.524048 638.811096,146.007690 608.170166,142.769058 
	C565.364746,138.244720 522.468262,137.511597 479.003662,138.006577 
z"/>
<path fill="#030303" opacity="1.000000" stroke="none" 
	d="
M625.476807,467.378235 
	C632.833801,448.089203 640.009216,429.143219 647.137573,410.321594 
	C662.801514,409.393677 662.802551,409.393280 667.975708,423.404541 
	C679.140198,453.642914 690.303955,483.881531 701.465820,514.120911 
	C701.865601,515.204041 702.241699,516.295959 702.748047,517.718994 
	C695.403137,517.718994 688.353821,517.718994 681.008423,517.718994 
	C678.437744,510.742401 675.799011,503.581146 672.970703,495.905396 
	C661.411316,495.905396 649.808350,495.822937 638.211365,496.046539 
	C637.173035,496.066589 635.761719,497.898041 635.225159,499.181549 
	C632.663452,505.308990 630.343994,511.537720 627.898438,517.833252 
	C620.834229,517.833252 613.906372,517.833252 606.368286,517.833252 
	C612.762390,500.903931 619.028809,484.312592 625.476807,467.378235 
M659.915588,457.538635 
	C658.103760,452.371399 656.291931,447.204163 653.973267,440.591431 
	C649.849182,454.286774 646.181396,466.466858 642.468872,478.795471 
	C651.088196,478.795471 658.939636,478.795471 667.168274,478.795471 
	C664.724731,471.714661 662.411621,465.011932 659.915588,457.538635 
z"/>
<path fill="#020202" opacity="1.000000" stroke="none" 
	d="
M812.027344,471.823792 
	C808.881409,471.823792 806.232056,471.823792 803.293945,471.823792 
	C803.293945,481.233063 803.293945,490.458923 803.293945,499.997925 
	C814.313293,499.997925 825.245911,499.997925 836.542419,499.997925 
	C836.542419,506.007294 836.542419,511.722534 836.542419,517.724731 
	C818.721313,517.724731 800.836182,517.724731 782.756104,517.724731 
	C782.756104,482.847321 782.756104,448.094971 782.756104,413.156921 
	C800.747070,413.156921 818.520813,413.156921 836.602173,413.156921 
	C836.602173,418.915375 836.602173,424.631592 836.602173,430.654297 
	C825.551025,430.654297 814.609253,430.654297 803.336426,430.654297 
	C803.336426,438.364929 803.336426,445.789856 803.336426,453.797791 
	C813.777405,453.797791 824.483337,453.797791 835.410645,453.797791 
	C835.410645,459.970032 835.410645,465.563141 835.410645,471.823792 
	C827.702393,471.823792 820.113159,471.823792 812.027344,471.823792 
z"/>
<path fill="#020202" opacity="1.000000" stroke="none" 
	d="
M559.014221,518.002625 
	C554.872986,518.002625 551.228577,518.002625 547.295288,518.002625 
	C547.295288,483.055664 547.295288,448.325043 547.295288,413.283112 
	C565.071533,413.283112 582.951111,413.283112 601.056885,413.283112 
	C601.056885,418.943085 601.056885,424.541412 601.056885,430.714661 
	C590.020569,430.714661 578.969116,430.714661 567.710327,430.714661 
	C567.710327,438.694611 567.710327,446.103302 567.710327,453.922852 
	C578.450439,453.922852 589.041748,453.922852 599.839233,453.922852 
	C599.839233,459.935059 599.839233,465.543427 599.839233,471.631958 
	C589.304321,471.631958 578.729797,471.631958 567.825989,471.631958 
	C567.825989,481.294403 567.825989,490.485596 567.825989,500.074341 
	C578.820923,500.074341 589.753784,500.074341 600.979980,500.074341 
	C600.979980,506.050537 600.979980,511.647278 600.979980,518.002625 
	C587.302124,518.002625 573.406616,518.002625 559.014221,518.002625 
z"/>
<path fill="#040404" opacity="1.000000" stroke="none" 
	d="
M738.810913,472.986115 
	C733.627686,470.649170 728.651367,468.704926 724.008728,466.153595 
	C712.249573,459.691376 707.545532,450.398804 709.191772,437.703003 
	C710.862854,424.815979 719.852661,413.876099 731.724548,411.205017 
	C745.599243,408.083282 757.472351,412.695343 768.481567,421.638733 
	C765.197632,426.492920 762.150085,430.997650 759.786560,434.491302 
	C754.401367,432.047546 749.680786,428.976501 744.528320,427.804810 
	C738.229797,426.372528 732.614807,430.363220 730.786133,435.932129 
	C728.996094,441.383148 730.960205,445.725128 737.487122,449.249695 
	C742.736084,452.084076 748.296753,454.336548 753.683533,456.921295 
	C765.817322,462.743500 772.300903,472.202759 771.831238,485.873627 
	C771.351379,499.841553 766.173035,511.474091 752.902893,517.430786 
	C740.215759,523.125793 727.470093,522.543030 716.294617,513.335693 
	C711.990540,509.789703 708.520081,505.231964 704.962463,501.446625 
	C709.594055,496.567535 713.676025,492.267334 717.670959,488.058929 
	C720.186218,491.330688 722.265198,494.743896 725.025269,497.466675 
	C729.706238,502.084442 735.504700,504.176300 741.938721,501.748260 
	C747.914978,499.493011 750.231689,494.362762 750.612732,488.316071 
	C751.033569,481.639587 747.388733,477.416443 741.831604,474.468811 
	C740.950623,474.001526 740.057373,473.557281 738.810913,472.986115 
z"/>
<path fill="#060606" opacity="1.000000" stroke="none" 
	d="
M879.010376,618.921570 
	C881.288818,613.744934 883.447510,608.929443 886.092102,603.029846 
	C902.023071,640.142212 917.546753,676.306091 933.219299,712.816528 
	C928.783142,712.816528 924.843018,712.816528 920.289673,712.816528 
	C916.864136,704.577026 913.184570,696.102356 909.843872,687.496094 
	C908.603577,684.300964 907.103577,682.943970 903.412354,683.020325 
	C890.091064,683.295837 876.760620,683.128723 863.156189,683.128723 
	C859.552368,691.549438 855.727295,699.840515 852.487854,708.354492 
	C851.066467,712.089966 849.222290,713.644531 845.265198,713.070374 
	C842.987305,712.739807 840.622131,713.010315 837.565979,713.010315 
	C851.469299,681.476440 865.179932,650.379578 879.010376,618.921570 
M881.226746,640.771423 
	C876.847961,651.107361 872.469238,661.443298 867.966858,672.070923 
	C879.860168,672.070923 891.271729,672.070923 903.229370,672.070923 
	C897.433411,658.193237 891.785278,644.669373 885.790649,630.315796 
	C884.136963,634.178162 882.867737,637.142639 881.226746,640.771423 
z"/>
<path fill="#060606" opacity="1.000000" stroke="none" 
	d="
M666.793823,686.124268 
	C670.639221,695.153137 674.344238,703.827515 678.187439,712.825317 
	C673.774292,712.825317 669.829895,712.825317 665.290649,712.825317 
	C661.857239,704.565369 658.171875,696.090454 654.838989,687.479126 
	C653.594482,684.263611 652.065247,682.948669 648.394714,683.022766 
	C635.073303,683.291626 621.743103,683.128723 608.154785,683.128723 
	C604.546448,691.560608 600.712158,699.851196 597.483948,708.371460 
	C596.058167,712.134399 594.180176,713.623169 590.248352,713.068848 
	C587.967285,712.747253 585.603760,713.010315 582.576904,713.010315 
	C598.713806,676.375244 614.660034,640.173157 631.047913,602.968323 
	C643.224731,631.285767 654.939087,658.527710 666.793823,686.124268 
M626.600098,640.104431 
	C622.089417,650.662903 617.578674,661.221375 612.992432,671.956543 
	C625.009888,671.956543 636.370422,671.956543 648.200867,671.956543 
	C642.363159,658.011414 636.704468,644.494080 630.762512,630.299988 
	C629.226807,633.922363 628.064636,636.663574 626.600098,640.104431 
z"/>
<path fill="#010101" opacity="1.000000" stroke="none" 
	d="
M540.455994,513.720947 
	C540.392700,515.325073 540.329468,516.464539 540.255554,517.796143 
	C523.834412,517.796143 507.617432,517.796143 491.203369,517.796143 
	C491.203369,482.894714 491.203369,448.194244 491.203369,413.234100 
	C497.861389,413.234100 504.431854,413.234100 511.485382,413.234100 
	C511.485382,427.722656 511.485382,442.164429 511.485382,456.606201 
	C511.485382,470.913269 511.485382,485.220306 511.485382,499.964539 
	C521.059326,499.964539 530.479980,499.964539 540.456055,499.964539 
	C540.456055,504.681152 540.456055,508.968781 540.455994,513.720947 
z"/>
<path fill="#060606" opacity="1.000000" stroke="none" 
	d="
M508.912659,703.087219 
	C489.688568,686.842163 483.206787,663.714294 491.514618,641.841309 
	C499.799133,620.029663 521.209229,605.479919 544.209839,606.147034 
	C553.168884,606.406860 561.543701,608.895447 569.440796,613.150330 
	C572.800720,614.960693 574.829651,617.149170 574.205505,621.342834 
	C573.799438,624.070923 574.128967,626.908630 574.128967,630.553772 
	C562.276917,620.383179 549.598145,614.846985 534.381653,617.866577 
	C523.980957,619.930420 515.619934,625.406189 509.140228,633.663574 
	C495.539703,650.995361 497.022888,675.181885 512.513184,691.024658 
	C529.241882,708.134033 550.606323,708.171997 574.107544,690.619202 
	C574.107544,695.138184 574.405151,699.215027 573.942932,703.203796 
	C573.785339,704.564087 571.913208,706.020996 570.492981,706.894897 
	C551.351318,718.673401 528.727600,717.303833 508.912659,703.087219 
z"/>
<path fill="#FF8181" opacity="1.000000" stroke="none" 
	d="
M105.991913,288.629333 
	C109.085648,290.327637 112.247856,291.416962 114.406281,293.531128 
	C126.307739,305.188477 140.600708,308.438782 157.957382,306.194214 
	C152.865692,310.951660 148.523743,315.008575 144.029266,319.208008 
	C128.337097,305.847595 109.426956,305.164886 90.607994,304.120422 
	C84.981712,303.808197 79.193230,304.117889 73.774597,302.864716 
	C63.836437,300.566345 59.836174,293.186523 61.905689,283.263123 
	C64.476242,270.937286 78.367462,254.646423 96.050827,255.703674 
	C106.138458,256.306793 116.328957,254.955704 126.470901,254.999619 
	C130.521194,255.017166 134.796860,255.869186 138.516006,257.425873 
	C140.408646,258.218018 142.583237,261.519623 142.419495,263.504425 
	C141.600937,273.425873 140.105530,283.294800 138.695068,293.160339 
	C138.487595,294.611450 137.460663,295.945435 136.812881,297.333649 
	C136.333649,297.305267 135.854416,297.276886 135.375198,297.248505 
	C134.624969,294.316254 133.980591,291.351746 133.099579,288.459320 
	C131.796799,284.182251 130.781616,279.733154 128.832611,275.754791 
	C124.650803,267.218719 116.311836,263.015320 106.908287,264.769226 
	C100.581055,265.949371 94.396797,267.934601 88.194473,269.719147 
	C86.635750,270.167633 85.172523,271.109436 83.806046,272.032684 
	C80.465515,274.289703 77.682053,277.103180 79.093781,281.527588 
	C80.439148,285.744049 83.770813,287.915680 88.173958,288.093018 
	C93.977592,288.326813 99.788940,288.368927 105.991913,288.629333 
z"/>
<path fill="#FF8282" opacity="1.000000" stroke="none" 
	d="
M900.686951,283.304871 
	C899.805603,275.937805 898.963257,269.007996 898.254761,262.064484 
	C897.883667,258.428528 899.647095,255.739822 903.047180,254.803345 
	C906.693054,253.799149 910.534668,252.946777 914.283264,252.976822 
	C926.262878,253.072876 938.253540,253.354202 950.212769,254.039200 
	C965.197998,254.897522 980.245972,272.737793 979.057739,287.752350 
	C978.411316,295.920288 971.238586,301.374023 960.806030,302.032135 
	C948.707397,302.795288 936.591431,303.515961 924.547607,304.842316 
	C914.271118,305.974030 905.081482,310.234039 896.818176,317.084320 
	C892.413391,312.972321 888.130371,308.973969 883.847351,304.975586 
	C893.999634,306.229797 903.421875,304.922974 912.312317,300.962708 
	C916.635559,299.036926 920.983398,296.482391 924.329163,293.201904 
	C929.736511,287.900024 935.716187,285.415283 943.185303,285.971130 
	C946.497131,286.217590 949.848328,286.230286 953.164734,286.045532 
	C957.416199,285.808594 960.384521,283.409332 961.727783,279.470337 
	C963.077942,275.510986 960.899719,272.457886 957.785095,270.591614 
	C947.720947,264.561249 936.897034,261.156250 925.022522,263.172882 
	C919.025391,264.191376 914.654114,268.074951 912.245300,273.411316 
	C909.944580,278.508423 908.678528,284.073517 906.973999,289.438171 
	C906.353760,291.390228 905.781067,293.357361 905.186646,295.317627 
	C904.565369,295.347412 903.944092,295.377197 903.322754,295.406982 
	C902.475708,291.516815 901.628601,287.626617 900.686951,283.304871 
z"/>
<path fill="#070707" opacity="1.000000" stroke="none" 
	d="
M689.892334,637.000000 
	C689.892334,627.195557 689.892334,617.891113 689.892334,607.355713 
	C701.300598,608.052307 712.646423,607.796936 723.633606,609.658508 
	C737.051575,611.931946 745.294006,624.006287 744.982178,638.191467 
	C744.668762,652.450012 735.646606,663.559509 721.775452,665.912231 
	C715.282349,667.013611 708.600769,667.003723 701.571045,667.529907 
	C701.571045,682.483032 701.571045,697.543091 701.571045,712.803955 
	C697.560425,712.803955 693.975159,712.803955 689.892334,712.803955 
	C689.892334,687.633240 689.892334,662.566589 689.892334,637.000000 
M701.588501,643.497192 
	C701.588501,647.588257 701.588501,651.679321 701.588501,656.953369 
	C709.092773,655.903381 716.072998,655.569458 722.681458,653.826172 
	C729.676208,651.981018 732.983093,646.122131 733.176331,638.075500 
	C733.385071,629.383667 730.713074,623.341125 724.084351,621.534424 
	C716.911865,619.579529 709.319336,619.165405 701.588440,618.032104 
	C701.588440,627.209229 701.588440,634.853088 701.588501,643.497192 
z"/>
<path fill="#060606" opacity="1.000000" stroke="none" 
	d="
M786.170776,607.965210 
	C806.460449,607.963318 826.264954,607.963318 846.352295,607.963318 
	C846.352295,611.658447 846.352295,615.054810 846.352295,618.872864 
	C837.876160,618.872864 829.631897,618.872864 821.030029,618.872864 
	C821.030029,650.364380 821.030029,681.439270 821.030029,712.761658 
	C817.070251,712.761658 813.466125,712.761658 809.468689,712.761658 
	C809.468689,681.772644 809.468689,650.698792 809.468689,619.081238 
	C800.885864,619.081238 792.664856,619.081238 783.052612,619.081238 
	C784.053406,614.856812 784.869507,611.411926 786.170776,607.965210 
z"/>
<path fill="#090909" opacity="1.000000" stroke="none" 
	d="
M944.887695,672.000000 
	C944.887695,650.526184 944.887695,629.552429 944.887695,608.268677 
	C948.771912,608.268677 952.476196,608.268677 956.594604,608.268677 
	C956.594604,639.509033 956.594604,670.579163 956.594604,701.965271 
	C966.284912,701.965271 975.570862,701.965271 985.200439,701.965271 
	C985.200439,705.677917 985.200439,709.077148 985.200439,712.751831 
	C971.936707,712.751831 958.697876,712.751831 944.887695,712.751831 
	C944.887695,699.343811 944.887695,685.921936 944.887695,672.000000 
z"/>
<path fill="#070707" opacity="1.000000" stroke="none" 
	d="
M760.058594,676.000000 
	C760.058594,653.195435 760.058594,630.890869 760.058594,608.274170 
	C764.003418,608.274170 767.716492,608.274170 771.661072,608.274170 
	C771.661072,643.113953 771.661072,677.842896 771.661072,712.792725 
	C767.861633,712.792725 764.260254,712.792725 760.058594,712.792725 
	C760.058594,700.693542 760.058594,688.596741 760.058594,676.000000 
z"/>
<path fill="#FF8181" opacity="1.000000" stroke="none" 
	d="
M988.994263,382.988464 
	C990.219849,383.134216 991.270386,383.439087 992.320984,383.743927 
	C991.729980,384.361237 991.138977,384.978546 990.547974,385.595856 
	C989.966614,385.058807 989.385254,384.521759 988.641235,383.730286 
	C988.478638,383.475800 988.819275,383.147552 988.994263,382.988464 
z"/>
<path fill="#FF8282" opacity="1.000000" stroke="none" 
	d="
M882.501099,303.554199 
	C882.419312,303.456635 882.731812,303.445892 882.731812,303.445892 
	C882.731812,303.445892 882.582825,303.651733 882.501099,303.554199 
z"/>
<path fill="#FF8181" opacity="1.000000" stroke="none" 
	d="
M158.506866,305.592926 
	C158.402267,305.650818 158.352966,305.409393 158.352966,305.409393 
	C158.352966,305.409393 158.611450,305.535034 158.506866,305.592926 
z"/>
<path fill="#FAFAFA" opacity="1.000000" stroke="none" 
	d="
M660.007080,457.923889 
	C662.411621,465.011932 664.724731,471.714661 667.168274,478.795471 
	C658.939636,478.795471 651.088196,478.795471 642.468872,478.795471 
	C646.181396,466.466858 649.849182,454.286774 653.973267,440.591431 
	C656.291931,447.204163 658.103760,452.371399 660.007080,457.923889 
z"/>
<path fill="#FBFBFB" opacity="1.000000" stroke="none" 
	d="
M881.412598,640.439270 
	C882.867737,637.142639 884.136963,634.178162 885.790649,630.315796 
	C891.785278,644.669373 897.433411,658.193237 903.229370,672.070923 
	C891.271729,672.070923 879.860168,672.070923 867.966858,672.070923 
	C872.469238,661.443298 876.847961,651.107361 881.412598,640.439270 
z"/>
<path fill="#FBFBFB" opacity="1.000000" stroke="none" 
	d="
M626.751343,639.754639 
	C628.064636,636.663574 629.226807,633.922363 630.762512,630.299988 
	C636.704468,644.494080 642.363159,658.011414 648.200867,671.956543 
	C636.370422,671.956543 625.009888,671.956543 612.992432,671.956543 
	C617.578674,661.221375 622.089417,650.662903 626.751343,639.754639 
z"/>
<path fill="#FDFDFD" opacity="1.000000" stroke="none" 
	d="
M701.588501,642.997070 
	C701.588440,634.853088 701.588440,627.209229 701.588440,618.032104 
	C709.319336,619.165405 716.911865,619.579529 724.084351,621.534424 
	C730.713074,623.341125 733.385071,629.383667 733.176331,638.075500 
	C732.983093,646.122131 729.676208,651.981018 722.681458,653.826172 
	C716.072998,655.569458 709.092773,655.903381 701.588501,656.953369 
	C701.588501,651.679321 701.588501,647.588257 701.588501,642.997070 
z"/>
</svg>